{"title":"Thomas de Stoomlocomotief - Gered op Misty Eiland (2010)(RETAIL)","uid":5990314,"size":1476013926,"categoryP":"video","categoryS":"movies","magnet":"?xt=urn:btih:b2defce458b126b311b87d80cae211c145d7ea41&amp;dn=Thomas+de+Stoomlocomotief+-+Gered+op+Misty+Eiland+%282010%29%28RETAIL%29&amp;tr=udp%3A%2F%2Ftracker.openbittorrent.com%3A80&amp;tr=udp%3A%2F%2Fopen.demonii.com%3A1337&amp;tr=udp%3A%2F%2Ftracker.coppersurfer.tk%3A6969&amp;tr=udp%3A%2F%2Fexodus.desync.com%3A6969","seeders":1,"leechers":0,"uploader":null,"files":-1,"time":1290863582,"description":"Thomas de Stoomlocomotief - Gered op Misty Eiland - 2010\n\n[img]http://image.bayimg.com/eaandaado.jpg[/img]\n[img]http://image.bayimg.com/eaangaado.jpg[/img]\n\nCategorie: Beeld\nFormaat: DVD5\nBron: Retail\nOndertitels: Geen\nGenre : Animatie, kinderfilm.\n\nDe machines zijn hard aan het werk om de nieuwe Sodor Search and Rescue Center te bouwen. Wanneer Thomas een vriend in nood helpt, wordt hij beloond met een spannende reis naar het vasteland. Onderweg raakt hij verdwaald op zee en vindt zijn weg naar de mysterieuze Misty Island, waar hij kennismaakt met nieuwe vrienden Bash, Dash, en Ferdinand. Samen proberen ze Thomas te helpen om de weg naar huis te vinden. Zal Sir Topham Hatt's zoektocht Thomas ooit vinden?\n\nVideo en Audio informatie:\n******************************\nVideo\nID                               : 224 (0xE0)\nFormat                           : MPEG Video\nFormat version                   : Version 2\nFormat profile                   : Main@Main\nFormat settings, BVOP            : Yes\nFormat settings, Matrix          : Default\nFormat settings, GOP             : M=2, N=14\nDuration                         : 42mn 54s\nBit rate mode                    : Variable\nBit rate                         : 3 046 Kbps\nNominal bit rate                 : 8 000 Kbps\nWidth                            : 720 pixels\nHeight                           : 576 pixels\nDisplay aspect ratio             : 16:9\nFrame rate                       : 25.000 fps\nStandard                         : PAL\nColor space                      : YUV\nChroma subsampling               : 4:2:0\nBit depth                        : 8 bits\nScan type                        : Interlaced\nScan order                       : Top Field First\nBits/(Pixel*Frame)               : 0.294\nStream size                      : 935 MiB (91%)\n\nAudio\nID                               : 128 (0x80)\nFormat                           : AC-3\nFormat/Info                      : Audio Coding 3\nMode extension                   : CM (complete main)\nDuration                         : 42mn 53s\nBit rate mode                    : Constant\nBit rate                         : 224 Kbps\nChannel(s)                       : 2 channels\nChannel positions                : Front: L R\nSampling rate                    : 48.0 KHz\nBit depth                        : 16 bits\nVideo delay                      : -40ms\nStream size                      : 68.7 MiB (7%)\n\n******************************\n\nBlack-Sam TBS","torrent":{"xt":"urn:btih:b2defce458b126b311b87d80cae211c145d7ea41","amp;dn":"Thomas+de+Stoomlocomotief+-+Gered+op+Misty+Eiland+%282010%29%28RETAIL%29","amp;tr":["udp%3A%2F%2Ftracker.openbittorrent.com%3A80","udp%3A%2F%2Fopen.demonii.com%3A1337","udp%3A%2F%2Ftracker.coppersurfer.tk%3A6969","udp%3A%2F%2Fexodus.desync.com%3A6969"],"infoHash":"b2defce458b126b311b87d80cae211c145d7ea41","infoHashBuffer":{"type":"Buffer","data":[178,222,252,228,88,177,38,179,17,184,125,128,202,226,17,193,69,215,234,65]},"announce":[],"urlList":[]}}